Coordinates
version=1
nRows=19
nColumns=24
inDegrees=yes

Units are S.I. units (second, meters, Newtons, ...)
Angles are in degrees.

endheader
time	pelvis_tilt	pelvis_list	pelvis_rotation	pelvis_tx	pelvis_ty	pelvis_tz	hip_flexion_r	hip_adduction_r	hip_rotation_r	knee_angle_r	ankle_angle_r	subtalar_angle_r	mtp_angle_r	hip_flexion_l	hip_adduction_l	hip_rotation_l	knee_angle_l	ankle_angle_l	subtalar_angle_l	mtp_angle_l	lumbar_extension	lumbar_bending	lumbar_rotation
      0.92516667	     -4.34027323	     -0.08739608	     -5.07990293	     -0.13585452	      0.89773485	      0.33688811	    -11.54150625	      3.49454627	      1.40508612	     -8.88904936	     13.63238164	      6.68831174	     11.56911833	     30.08801345	     -1.29973160	     -7.09976219	    -13.22587396	      1.40338128	     -4.94233499	      0.72527131	     -4.72737201	      0.44423289	      9.41991402
      0.92933333	     -4.39699940	     -0.08229505	     -5.18759134	     -0.13003446	      0.89650805	      0.33675070	    -11.58859512	      3.41430488	      1.52845551	     -9.50476674	     13.81527484	      6.73634852	     11.61361791	     30.09838078	     -1.29576481	     -6.89324664	    -13.18222071	      1.54142736	     -4.91606551	      0.72592539	     -4.60730037	      0.39449585	      9.46022732
      0.93350000	     -4.51604674	     -0.06721077	     -5.30253104	     -0.12425687	      0.89521402	      0.33659405	    -11.51027264	      3.32084518	      1.62327689	    -10.23077880	     14.01129988	      6.97371783	     11.72031914	     30.18860394	     -1.28626816	     -6.67706716	    -13.25349496	      1.59556523	     -4.95038532	      0.72552516	     -4.43670140	      0.32214053	      9.54430565
      0.93766667	     -4.60922068	     -0.03965938	     -5.40796154	     -0.11843563	      0.89400491	      0.33640784	    -11.43199030	      3.21108461	      1.67520570	    -11.01252660	     14.15883944	      7.18905300	     11.88236691	     30.23261456	     -1.25230400	     -6.47438808	    -13.37904890	      1.63233768	     -5.00836972	      0.73103843	     -4.27648479	      0.26147310	      9.59703702
      0.94183333	     -4.69843047	     -0.00159135	     -5.49967426	     -0.11261060	      0.89283342	      0.33620304	    -11.33139697	      3.09288491	      1.72135918	    -11.84638791	     14.28053437	      7.37993180	     12.10618638	     30.28212682	     -1.20012398	     -6.29041629	    -13.60524866	      1.63937948	     -5.09756301	      0.74629774	     -4.12961918	      0.16852915	      9.62086622
      0.94600000	     -4.79285508	      0.04124215	     -5.58286792	     -0.10678113	      0.89169324	      0.33597874	    -11.19558167	      2.97117685	      1.76291884	    -12.73637345	     14.36951473	      7.56645995	     12.36981916	     30.33956895	     -1.13751997	     -6.12309389	    -13.90897060	      1.61214251	     -5.20713100	      0.77276489	     -3.97620452	      0.06709242	      9.61715524
      0.95016667	     -4.86962484	      0.10651092	     -5.63840283	     -0.10091999	      0.89060625	      0.33569475	    -11.04926080	      2.82091902	      1.72224581	    -13.68315625	     14.43836905	      7.83225206	     12.88326345	     30.38883398	     -1.03367376	     -5.97189495	    -14.30020881	      1.55347196	     -5.39736428	      0.83624918	     -3.83948685	     -0.08266183	      9.61599721
      0.95433333	     -4.91501000	      0.20304535	     -5.72770710	     -0.09504695	      0.88964066	      0.33541406	    -10.87901846	      2.62023957	      1.69774880	    -14.73577145	     14.50814732	      8.14379639	     14.41653685	     30.34814411	     -0.89468364	     -5.81305071	    -14.63621492	      1.47096193	     -5.63094611	      1.06684216	     -3.74185275	     -0.24417206	      9.59021811
      0.95850000	     -5.04099713	      0.23988004	     -5.77970134	     -0.08922486	      0.88859120	      0.33517007	    -10.63113798	      2.52716662	      1.79939089	    -15.76555803	     14.38481715	      8.09638856	     14.56807881	     30.47655672	     -0.83564547	     -5.76377783	    -15.18910652	      1.34568495	     -5.71636761	      1.09428808	     -3.54456780	     -0.35281270	      9.49659559
      0.96266667	     -5.13480740	      0.30090750	     -5.80884781	     -0.08339295	      0.88762314	      0.33480581	    -10.34635200	      2.38152101	      1.71819192	    -16.93302513	     14.31127290	      8.38430234	     14.91967159	     30.54765293	     -0.71794417	     -5.64925541	    -15.72816414	      1.20013476	     -5.90057547	      1.16251088	     -3.39039461	     -0.45019521	      9.42362663
      0.96683333	     -5.20027781	      0.40031199	     -5.83667874	     -0.07751894	      0.88676796	      0.33444067	    -10.07252717	      2.19277444	      1.66300597	    -18.11597677	     14.08008865	      8.50914641	     18.62282479	     30.57126680	     -0.55165983	     -5.55681533	    -16.26982956	      1.02849397	     -6.23626562	      1.93032112	     -3.26058619	     -0.64772157	      9.33086747
      0.97100000	     -5.28030330	      0.47872838	     -5.86333791	     -0.07169544	      0.88592831	      0.33407471	     -9.72832037	      2.02792708	      1.60741895	    -19.40846789	     13.89872508	      8.72421419	     18.69349442	     30.64015426	     -0.42425439	     -5.55990394	    -16.90292241	      0.91463430	     -6.34665162	      1.95457148	     -3.12240737	     -0.78953751	      9.21069035
      0.97516667	     -5.35785332	      0.58134709	     -5.87914547	     -0.06585452	      0.88515704	      0.33369478	     -9.35549954	      1.83745396	      1.54764601	    -20.74403622	     13.62173573	      8.90868906	     18.79058984	     30.70281879	     -0.26369467	     -5.56321333	    -17.55335321	      0.82013159	     -6.54614859	      1.98024934	     -2.97829656	     -1.00110983	      9.07632786
      0.97933333	     -5.43544674	      0.67885726	     -5.87208761	     -0.06006620	      0.88442866	      0.33324452	     -8.92241407	      1.64409583	      1.41969775	    -22.18373412	     13.32591079	      9.17315446	     18.95776388	     30.76808015	     -0.09121724	     -5.52991362	    -18.21487803	      0.70398249	     -6.76887158	      2.01864163	     -2.84596865	     -1.16705246	      8.92726697
      0.98350000	     -5.44880248	      0.81257406	     -5.84138581	     -0.05424965	      0.88385905	      0.33267364	     -8.51757797	      1.37944055	      1.17978073	    -23.68329977	     12.98689361	      9.61271295	     19.78273650	     30.73251524	      0.15810691	     -5.43154792	    -18.81598340	      0.58637719	     -7.17529492	      2.19374078	     -2.79825561	     -1.36535141	      8.75541766
      0.98766667	     -5.52610132	      0.91210509	     -5.81148318	     -0.04850064	      0.88325666	      0.33221277	     -8.01494206	      1.18817855	      1.06920978	    -25.20973337	     12.44229727	      9.66447631	     23.15988901	     30.80938539	      0.32967759	     -5.45585038	    -19.52372142	      0.51158790	     -7.33954671	      2.89441097	     -2.66702303	     -1.55239186	      8.58701748
      0.99183333	     -5.58111415	      1.02274083	     -5.77838848	     -0.04277031	      0.88273884	      0.33172231	     -7.48577882	      0.96969399	      0.91905284	    -26.82025393	     11.91335627	      9.86516238	     23.21594223	     30.85655695	      0.51423886	     -5.49733008	    -20.23264834	      0.54076040	     -7.43338035	      2.91449591	     -2.56676273	     -1.73828362	      8.40505422
      0.99600000	     -5.62253672	      1.15078448	     -5.72999522	     -0.03706536	      0.88229946	      0.33119258	     -6.92676450	      0.72067006	      0.72961324	    -28.49145075	     11.33393937	     10.10278869	     23.33376195	     30.87947817	      0.73047571	     -5.51020804	    -20.92222938	      0.59361867	     -7.59650762	      2.94147963	     -2.48689454	     -1.95177394	      8.20652770
      1.00016667	     -5.64481779	      1.29193108	     -5.67908355	     -0.03137731	      0.88196185	      0.33066816	     -6.35283058	      0.45288127	      0.54890829	    -30.19822693	     10.63372096	     10.29932938	     23.45616013	     30.86154382	      0.96337707	     -5.51217922	    -21.57785659	      0.72015911	     -7.72519017	      2.96715104	     -2.43252104	     -2.21343891	      8.01158950
